<svg width="80" height="49" viewBox="0 0 80 49" fill="none" xmlns="http://www.w3.org/2000/svg">
<path d="M5.32 12L2.856 5.376V12H0.12V0.511999H3.688L6.584 8.304L9.464 0.511999H13.032V12H10.296V5.296L7.816 12H5.32ZM17.6123 7.488H22.4923L23.2763 9.872H16.8123L17.6123 7.488ZM22.7643 12L20.0763 3.84L17.3083 12H14.2523L18.5083 0.511999H21.8203L26.0283 12H22.7643ZM36.1325 8.24C36.1325 9.02933 35.9298 9.71733 35.5245 10.304C35.1298 10.8907 34.5698 11.3493 33.8445 11.68C33.1192 12 32.2552 12.16 31.2525 12.16C30.2605 12.16 29.3912 11.9947 28.6445 11.664C27.9085 11.3227 27.3218 10.8427 26.8845 10.224C26.4578 9.60533 26.2072 8.87467 26.1325 8.032H29.1885C29.2098 8.576 29.3912 9.008 29.7325 9.328C30.0845 9.648 30.5698 9.808 31.1885 9.808C31.5405 9.808 31.8445 9.76533 32.1005 9.68C32.3565 9.59467 32.5538 9.46667 32.6925 9.296C32.8418 9.12533 32.9165 8.92267 32.9165 8.688C32.9165 8.44267 32.8045 8.23467 32.5805 8.064C32.3672 7.88267 32.0898 7.76 31.7485 7.696L29.6525 7.296C29.1938 7.21067 28.7778 7.07733 28.4045 6.896C28.0312 6.71467 27.7058 6.49067 27.4285 6.224C27.1618 5.94667 26.9538 5.62667 26.8045 5.264C26.6658 4.89067 26.5965 4.47467 26.5965 4.016C26.5965 3.30133 26.7885 2.672 27.1725 2.128C27.5565 1.57333 28.0845 1.14133 28.7565 0.832C29.4285 0.522666 30.1965 0.367999 31.0605 0.367999C31.9778 0.367999 32.7885 0.533333 33.4925 0.863999C34.2072 1.19467 34.7778 1.664 35.2045 2.272C35.6418 2.86933 35.8872 3.584 35.9405 4.416H32.8845C32.8632 4.064 32.7725 3.76 32.6125 3.504C32.4525 3.248 32.2445 3.05067 31.9885 2.912C31.7325 2.77333 31.4338 2.704 31.0925 2.704C30.7938 2.704 30.5378 2.752 30.3245 2.848C30.1112 2.944 29.9458 3.07733 29.8285 3.248C29.7112 3.408 29.6525 3.59467 29.6525 3.808C29.6525 3.97867 29.7005 4.128 29.7965 4.256C29.9032 4.37333 30.0418 4.47467 30.2125 4.56C30.3832 4.63467 30.5698 4.69333 30.7725 4.736L32.9965 5.168C34.0205 5.37067 34.7992 5.728 35.3325 6.24C35.8658 6.74133 36.1325 7.408 36.1325 8.24ZM43.034 12H40.01V3.248H36.49V0.511999H46.554V3.248H43.034V12ZM56.0449 9.376V12H47.9169V0.511999H55.9329V3.136H50.9409V4.784H55.4689V7.408H50.9409V9.376H56.0449ZM60.8003 12H57.7763V0.511999H62.4803C64.0376 0.511999 65.2376 0.847999 66.0803 1.52C66.9336 2.18133 67.3603 3.12533 67.3603 4.352C67.3603 5.088 67.1469 5.74933 66.7203 6.336C66.3043 6.912 65.7069 7.36533 64.9283 7.696L67.7443 12H64.1443L61.7923 8.176H60.8003V12ZM60.8003 3.008V5.68H62.3523C63.0243 5.68 63.5203 5.57333 63.8403 5.36C64.1603 5.14667 64.3203 4.81067 64.3203 4.352C64.3203 3.89333 64.1603 3.55733 63.8403 3.344C63.5203 3.12 63.0243 3.008 62.3523 3.008H60.8003ZM9.144 26.544C9.144 27.6213 8.76533 28.4693 8.008 29.088C7.25067 29.696 6.20533 30 4.872 30H0.12V18.512H4.728C5.98667 18.512 6.97867 18.7787 7.704 19.312C8.44 19.8453 8.808 20.6133 8.808 21.616C8.808 22.1173 8.68 22.5653 8.424 22.96C8.168 23.3547 7.8 23.696 7.32 23.984C7.90667 24.2293 8.35467 24.5653 8.664 24.992C8.984 25.4187 9.144 25.936 9.144 26.544ZM4.488 20.896H2.856V22.88H4.488C4.98933 22.88 5.35733 22.7893 5.592 22.608C5.83733 22.4267 5.96 22.1813 5.96 21.872C5.96 21.5733 5.83733 21.3387 5.592 21.168C5.35733 20.9867 4.98933 20.896 4.488 20.896ZM4.632 25.264H2.856V27.616H4.632C5.19733 27.616 5.61333 27.5093 5.88 27.296C6.15733 27.0827 6.296 26.7947 6.296 26.432C6.296 26.08 6.15733 25.7973 5.88 25.584C5.61333 25.3707 5.19733 25.264 4.632 25.264ZM20.5873 18.512V25.424C20.5873 26.352 20.3953 27.1787 20.0113 27.904C19.6379 28.6293 19.0779 29.2 18.3313 29.616C17.5953 30.032 16.6886 30.24 15.6113 30.24C14.5233 30.24 13.6059 30.032 12.8593 29.616C12.1233 29.2 11.5633 28.6293 11.1793 27.904C10.8059 27.1787 10.6193 26.352 10.6193 25.424V18.512H13.6432V25.472C13.6432 25.8667 13.7019 26.224 13.8193 26.544C13.9366 26.8533 14.1339 27.0987 14.4113 27.28C14.6993 27.4507 15.0993 27.536 15.6113 27.536C16.1233 27.536 16.5179 27.4507 16.7953 27.28C17.0833 27.0987 17.2806 26.8533 17.3873 26.544C17.5046 26.224 17.5633 25.8667 17.5633 25.472V18.512H20.5873ZM25.8159 30H22.7919V18.512H25.8159V30ZM35.9135 30H28.0575V18.512H31.0815V27.264H35.9135V30ZM41.9906 30H37.5106V18.512H41.9906C43.2066 18.512 44.2573 18.752 45.1426 19.232C46.028 19.712 46.7106 20.3787 47.1906 21.232C47.6706 22.0853 47.9106 23.072 47.9106 24.192C47.9106 25.3013 47.6653 26.2987 47.1746 27.184C46.684 28.0587 45.9906 28.7467 45.0946 29.248C44.2093 29.7493 43.1746 30 41.9906 30ZM40.5346 21.12V27.392H41.8146C42.4866 27.392 43.0413 27.2747 43.4786 27.04C43.9266 26.8053 44.2573 26.4533 44.4706 25.984C44.6946 25.504 44.8066 24.9067 44.8066 24.192C44.8066 23.5093 44.6946 22.944 44.4706 22.496C44.2466 22.0373 43.9106 21.696 43.4626 21.472C43.0253 21.2373 42.476 21.12 41.8146 21.12H40.5346ZM57.6074 27.376V30H49.4794V18.512H57.4954V21.136H52.5034V22.784H57.0314V25.408H52.5034V27.376H57.6074ZM62.3628 30H59.3388V18.512H64.0428C65.6001 18.512 66.8001 18.848 67.6428 19.52C68.4961 20.1813 68.9228 21.1253 68.9228 22.352C68.9228 23.088 68.7094 23.7493 68.2828 24.336C67.8668 24.912 67.2694 25.3653 66.4908 25.696L69.3068 30H65.7068L63.3548 26.176H62.3628V30ZM62.3628 21.008V23.68H63.9148C64.5868 23.68 65.0828 23.5733 65.4028 23.36C65.7228 23.1467 65.8828 22.8107 65.8828 22.352C65.8828 21.8933 65.7228 21.5573 65.4028 21.344C65.0828 21.12 64.5868 21.008 63.9148 21.008H62.3628ZM79.8669 26.24C79.8669 27.0293 79.6642 27.7173 79.2589 28.304C78.8642 28.8907 78.3042 29.3493 77.5789 29.68C76.8535 30 75.9895 30.16 74.9869 30.16C73.9949 30.16 73.1255 29.9947 72.3789 29.664C71.6429 29.3227 71.0562 28.8427 70.6189 28.224C70.1922 27.6053 69.9415 26.8747 69.8669 26.032H72.9229C72.9442 26.576 73.1255 27.008 73.4669 27.328C73.8189 27.648 74.3042 27.808 74.9229 27.808C75.2749 27.808 75.5789 27.7653 75.8349 27.68C76.0909 27.5947 76.2882 27.4667 76.4269 27.296C76.5762 27.1253 76.6509 26.9227 76.6509 26.688C76.6509 26.4427 76.5389 26.2347 76.3149 26.064C76.1015 25.8827 75.8242 25.76 75.4829 25.696L73.3869 25.296C72.9282 25.2107 72.5122 25.0773 72.1389 24.896C71.7655 24.7147 71.4402 24.4907 71.1629 24.224C70.8962 23.9467 70.6882 23.6267 70.5389 23.264C70.4002 22.8907 70.3309 22.4747 70.3309 22.016C70.3309 21.3013 70.5229 20.672 70.9069 20.128C71.2909 19.5733 71.8189 19.1413 72.4909 18.832C73.1629 18.5227 73.9309 18.368 74.7949 18.368C75.7122 18.368 76.5229 18.5333 77.2269 18.864C77.9415 19.1947 78.5122 19.664 78.9389 20.272C79.3762 20.8693 79.6215 21.584 79.6749 22.416H76.6189C76.5975 22.064 76.5069 21.76 76.3469 21.504C76.1869 21.248 75.9789 21.0507 75.7229 20.912C75.4669 20.7733 75.1682 20.704 74.8269 20.704C74.5282 20.704 74.2722 20.752 74.0589 20.848C73.8455 20.944 73.6802 21.0773 73.5629 21.248C73.4455 21.408 73.3869 21.5947 73.3869 21.808C73.3869 21.9787 73.4349 22.128 73.5309 22.256C73.6375 22.3733 73.7762 22.4747 73.9469 22.56C74.1175 22.6347 74.3042 22.6933 74.5069 22.736L76.7309 23.168C77.7549 23.3707 78.5335 23.728 79.0669 24.24C79.6002 24.7413 79.8669 25.408 79.8669 26.24ZM11.368 36.512L5.384 48H2.184L0.28 36.512H3.208L4.312 44.576L8.184 36.512H11.368ZM19.821 44.32C19.821 45.0987 19.629 45.776 19.245 46.352C18.8717 46.928 18.3383 47.376 17.645 47.696C16.9517 48.0053 16.125 48.16 15.165 48.16C13.6823 48.16 12.5143 47.7973 11.661 47.072C10.8183 46.336 10.3917 45.3227 10.381 44.032H13.261C13.261 44.5653 13.453 44.9973 13.837 45.328C14.221 45.6587 14.7223 45.824 15.341 45.824C15.6717 45.824 15.949 45.7867 16.173 45.712C16.397 45.6267 16.5677 45.504 16.685 45.344C16.813 45.184 16.877 44.9973 16.877 44.784C16.877 44.5067 16.7863 44.2933 16.605 44.144C16.4343 43.9947 16.1143 43.8507 15.645 43.712L13.853 43.184C13.0103 42.9387 12.3597 42.544 11.901 42C11.453 41.456 11.229 40.8107 11.229 40.064C11.229 39.3173 11.4157 38.672 11.789 38.128C12.173 37.5733 12.7117 37.1413 13.405 36.832C14.0983 36.5227 14.9037 36.368 15.821 36.368C16.7063 36.368 17.4743 36.5333 18.125 36.864C18.7757 37.1947 19.2823 37.664 19.645 38.272C20.0183 38.8693 20.205 39.5787 20.205 40.4H17.325C17.325 40.0587 17.2503 39.76 17.101 39.504C16.9623 39.248 16.765 39.0453 16.509 38.896C16.2637 38.7467 15.9757 38.672 15.645 38.672C15.1757 38.672 14.8077 38.7733 14.541 38.976C14.2743 39.168 14.141 39.4347 14.141 39.776C14.141 40.0213 14.2263 40.2293 14.397 40.4C14.5783 40.5707 14.8503 40.7093 15.213 40.816L17.101 41.36C17.9863 41.616 18.6583 42 19.117 42.512C19.5863 43.0133 19.821 43.616 19.821 44.32ZM31.5774 48H23.9774L26.0094 36.512H28.9374L27.3534 45.344H32.0414L31.5774 48ZM37.1678 48H34.2398L35.7918 39.168H32.3838L32.8478 36.512H42.5758L42.1278 39.168H38.7198L37.1678 48ZM46.4105 48H41.9305L43.9625 36.512H48.1705C49.1412 36.512 49.9945 36.7147 50.7305 37.12C51.4772 37.5253 52.0585 38.0907 52.4745 38.816C52.9012 39.5307 53.1145 40.3573 53.1145 41.296C53.1145 42.2667 52.9492 43.1627 52.6185 43.984C52.2878 44.8053 51.8238 45.5147 51.2265 46.112C50.6292 46.7093 49.9198 47.1733 49.0985 47.504C48.2878 47.8347 47.3918 48 46.4105 48ZM46.4425 39.072L45.2905 45.44H46.6825C47.1945 45.44 47.6585 45.3493 48.0745 45.168C48.5012 44.976 48.8638 44.704 49.1625 44.352C49.4718 44 49.7065 43.5787 49.8665 43.088C50.0265 42.5973 50.1065 42.048 50.1065 41.44C50.1065 40.9387 50.0105 40.512 49.8185 40.16C49.6265 39.808 49.3492 39.5413 48.9865 39.36C48.6345 39.168 48.2025 39.072 47.6905 39.072H46.4425Z" fill="#0029FF"/>
</svg>
